Coordinates
version=1
nRows=15
nColumns=27
inDegrees=yes

Units are S.I. units (second, meters, Newtons, ...)
If the header above contains a line with 'inDegrees', this indicates whether rotational values are in degrees (yes) or radians (no).

endheader
time	pelvis_rotation	pelvis_tilt	pelvis_list	pelvis_tx	pelvis_ty	pelvis_tz	hip_flexion_r	hip_adduction_r	hip_rotation_r	knee_angle_r	knee_rotation_r	knee_adduction_r	knee_angle_r_beta	ankle_angle_r	subtalar_angle_r	mtp_angle_r	hip_flexion_l	hip_adduction_l	hip_rotation_l	knee_angle_l	knee_rotation_l	knee_adduction_l	knee_angle_l_beta	ankle_angle_l	subtalar_angle_l	mtp_angle_l
      2.29500000	     -0.62718243	    -18.28236812	     -4.75911773	      0.05330512	      0.82960506	     -1.17907439	     33.74814140	    -20.37812786	    -25.93892522	     26.61788000	      0.00000000	      0.00000000	      0.46456965	     -0.04948460	      0.00000000	      0.00000000	     39.55863063	    -26.52027652	     -4.60300435	     28.19159342	      0.00000000	      0.00000000	      0.49203613	      2.85766991	      0.00000000	      0.00000000
      2.30000000	     -0.22356934	    -18.73451433	     -4.82177305	      0.05215446	      0.82907705	     -1.17921028	     34.28055056	    -20.59490831	    -26.28357254	     27.04526366	      0.00000000	      0.00000000	      0.47202890	     -0.05328540	      0.00000000	      0.00000000	     40.61322298	    -26.36864400	     -3.76100839	     28.62661943	      0.00000000	      0.00000000	      0.49962876	      2.87624866	      0.00000000	      0.00000000
      2.30500000	     -0.82733941	    -19.18061455	     -4.14482300	      0.05043550	      0.82825014	     -1.17998645	     35.89633287	    -21.27081919	    -24.80459497	     28.08974815	      0.00000000	      0.00000000	      0.49025859	      0.20305511	      0.00000000	      0.00000000	     40.80644945	    -26.02421157	     -4.75259547	     28.81821348	      0.00000000	      0.00000000	      0.50297271	      2.86470333	      0.00000000	      0.00000000
      2.31000000	     -1.24173874	    -19.60105337	     -3.66242777	      0.04879451	      0.82741986	     -1.18055521	     37.28605789	    -21.77317947	    -23.68148958	     29.00482834	      0.00000000	      0.00000000	      0.50622975	      0.38619330	      0.00000000	      0.00000000	     41.18579033	    -25.78779269	     -5.38135530	     29.10306944	      0.00000000	      0.00000000	      0.50794438	      2.82729133	      0.00000000	      0.00000000
      2.31500000	     -0.86036976	    -20.13711490	     -3.62247874	      0.04736125	      0.82664665	     -1.18078737	     38.05053994	    -22.11501604	    -23.85324925	     29.57690104	      0.00000000	      0.00000000	      0.51621431	      0.41332075	      0.00000000	      0.00000000	     42.33475324	    -25.56668128	     -4.60618679	     29.60352022	      0.00000000	      0.00000000	      0.51667890	      2.88862655	      0.00000000	      0.00000000
      2.32000000	     -0.97134894	    -20.64827654	     -3.34532988	      0.04577588	      0.82578607	     -1.18117426	     39.24267292	    -22.50309239	    -23.21456629	     30.32992419	      0.00000000	      0.00000000	      0.52935704	      0.51186418	      0.00000000	      0.00000000	     43.07925131	    -25.37139150	     -4.65210567	     29.98629570	      0.00000000	      0.00000000	      0.52335959	      2.89563717	      0.00000000	      0.00000000
      2.32500000	     -1.26377117	    -21.13297366	     -2.89849280	      0.04401737	      0.82474369	     -1.18166273	     40.67940918	    -22.98782843	    -22.19937907	     31.27080922	      0.00000000	      0.00000000	      0.54577858	      0.67768115	      0.00000000	      0.00000000	     43.64072429	    -25.13029820	     -5.05119631	     30.33344783	      0.00000000	      0.00000000	      0.52941854	      2.87729063	      0.00000000	      0.00000000
      2.33000000	     -1.16023202	    -21.70009807	     -2.77613327	      0.04235259	      0.82372581	     -1.18189187	     41.75978149	    -23.30175656	    -21.90162082	     31.97517011	      0.00000000	      0.00000000	      0.55807200	      0.76020889	      0.00000000	      0.00000000	     44.71075208	    -24.98999144	     -4.69287031	     30.89099004	      0.00000000	      0.00000000	      0.53914949	      2.94158624	      0.00000000	      0.00000000
      2.33500000	     -0.72340792	    -22.22433621	     -2.85130219	      0.04083772	      0.82268313	     -1.18199104	     42.47000042	    -23.57808304	    -22.20179916	     32.55393090	      0.00000000	      0.00000000	      0.56817328	      0.77976147	      0.00000000	      0.00000000	     45.99690838	    -24.83840065	     -3.74034802	     31.51145387	      0.00000000	      0.00000000	      0.54997862	      3.01694040	      0.00000000	      0.00000000
      2.34000000	     -1.28040073	    -22.51117577	     -1.93226308	      0.03901993	      0.82137984	     -1.18273008	     44.18588447	    -24.31766541	    -20.38741300	     33.71466693	      0.00000000	      0.00000000	      0.58843194	      1.01667961	      0.00000000	      0.00000000	     45.96744815	    -24.39154857	     -4.92103706	     31.69967329	      0.00000000	      0.00000000	      0.55326367	      2.90718217	      0.00000000	      0.00000000
      2.34500000	     -1.56065339	    -23.00621401	     -1.44500618	      0.03715770	      0.82000479	     -1.18316287	     45.74200203	    -24.77007650	    -19.23330566	     34.70341110	      0.00000000	      0.00000000	      0.60568879	      1.16012676	      0.00000000	      0.00000000	     46.59469444	    -24.17047583	     -5.35048667	     32.15150919	      0.00000000	      0.00000000	      0.56114969	      2.94857402	      0.00000000	      0.00000000
      2.35000000	     -1.57145176	    -23.42841608	     -1.11151776	      0.03547056	      0.81864365	     -1.18348078	     46.94138895	    -25.19100392	    -18.57048636	     35.54823653	      0.00000000	      0.00000000	      0.62043377	      1.23514149	      0.00000000	      0.00000000	     47.35525261	    -23.95267059	     -5.34097454	     32.65331747	      0.00000000	      0.00000000	      0.56990790	      2.95657591	      0.00000000	      0.00000000
      2.35500000	     -1.82166843	    -23.82964377	     -0.71715713	      0.03372638	      0.81720420	     -1.18375137	     48.32722901	    -25.51345435	    -17.49569380	     36.45128184	      0.00000000	      0.00000000	      0.63619488	      1.35571517	      0.00000000	      0.00000000	     47.93672355	    -23.81943136	     -5.68052759	     33.11651285	      0.00000000	      0.00000000	      0.57799219	      2.96070156	      0.00000000	      0.00000000
      2.36000000	     -1.44914778	    -24.37014146	     -0.87337778	      0.03213419	      0.81584910	     -1.18368631	     49.09861656	    -25.69274466	    -17.72885661	     37.03418937	      0.00000000	      0.00000000	      0.64636854	      1.38642424	      0.00000000	      0.00000000	     49.30831940	    -23.80133298	     -4.76446940	     33.83611446	      0.00000000	      0.00000000	      0.59055160	      3.02346366	      0.00000000	      0.00000000
      2.36500000	     -1.23324821	    -24.74241628	     -0.74654054	      0.03068201	      0.81445139	     -1.18376964	     49.94118730	    -26.02070143	    -17.53384945	     37.71181722	      0.00000000	      0.00000000	      0.65819538	      1.47125632	      0.00000000	      0.00000000	     50.22850546	    -23.64817676	     -4.33961089	     34.40650790	      0.00000000	      0.00000000	      0.60050685	      3.05525217	      0.00000000	      0.00000000
